<svg xmlns="http://www.w3.org/2000/svg" viewBox="0 0 640 420" role="img" aria-labelledby="t d">
<title id="t">Corte de cubo de roda de caminhão com rolamentos cônicos</title>
<desc id="d">Cubo de roda montado na ponta de eixo com rolamento cônico interno, rolamento cônico externo, retentor e porca de ajuste da pré-carga.</desc>
<defs><pattern id="h" width="7" height="7" patternUnits="userSpaceOnUse" patternTransform="rotate(45)">
<rect width="7" height="7" fill="#E4E8EB"/><line x1="0" y1="0" x2="0" y2="7" stroke="#5C6B73" stroke-width="1.1"/></pattern></defs><rect width="640" height="420" fill="#FFFFFF"/><polygon points="20.0,148.0 150.0,148.0 160.0,160.0 330.0,160.0 340.0,174.0 440.0,174.0 440.0,246.0 340.0,246.0 330.0,260.0 160.0,260.0 150.0,272.0 20.0,272.0" fill="#F4F6F8" stroke="#2B303A" stroke-width="2"/><polygon points="140.0,60.0 190.0,60.0 190.0,96.0 400.0,96.0 416.0,110.0 416.0,140.0 344.0,140.0 344.0,110.0 242.0,110.0 242.0,118.0 172.0,118.0 172.0,134.0 140.0,134.0" fill="url(#h)" stroke="#2B303A" stroke-width="2" stroke-linejoin="round"/><rect x="118" y="68" width="96" height="12" fill="#A8B2B7" stroke="#2B303A" stroke-width="1.5"/><polygon points="174.9,118.0 242.0,118.0 242.0,128.6 174.9,138.2" fill="url(#h)" stroke="#2B303A" stroke-width="1.6" stroke-linejoin="round"/>
<polygon points="172.0,160.0 242.0,160.0 242.0,139.8 234.7,139.8 234.7,143.8 182.2,148.6 179.3,148.8 179.3,146.2 172.0,146.2" fill="url(#h)" stroke="#2B303A" stroke-width="1.6" stroke-linejoin="round"/>
<polygon points="182.2,137.4 233.2,130.1 233.2,143.9 182.2,148.6" fill="#A8B2B7" stroke="#2B303A" stroke-width="1.6" stroke-linejoin="round"/>
<line x1="179.3" y1="143.1" x2="237.6" y2="137.0" stroke="#2B303A" stroke-width="0.7" stroke-dasharray="6 2 1 2" opacity=".7"/><g transform="translate(738,0) scale(-1,1)"><polygon points="346.1,140.0 394.0,140.0 394.0,148.6 346.1,156.4" fill="url(#h)" stroke="#2B303A" stroke-width="1.6" stroke-linejoin="round"/>
<polygon points="344.0,174.0 394.0,174.0 394.0,157.6 388.8,157.6 388.8,160.9 351.3,164.7 349.2,165.0 349.2,162.8 344.0,162.8" fill="url(#h)" stroke="#2B303A" stroke-width="1.6" stroke-linejoin="round"/>
<polygon points="351.3,155.7 387.8,149.8 387.8,161.0 351.3,164.7" fill="#A8B2B7" stroke="#2B303A" stroke-width="1.6" stroke-linejoin="round"/>
<line x1="349.2" y1="160.3" x2="390.9" y2="155.4" stroke="#2B303A" stroke-width="0.7" stroke-dasharray="6 2 1 2" opacity=".7"/></g><rect x="148" y="134" width="22" height="14" fill="#5C6B73" stroke="#2B303A" stroke-width="1.5"/><rect x="400" y="152" width="28" height="22" fill="#A8B2B7" stroke="#2B303A" stroke-width="1.5"/><g transform="translate(0,420) scale(1,-1)"><polygon points="140.0,60.0 190.0,60.0 190.0,96.0 400.0,96.0 416.0,110.0 416.0,140.0 344.0,140.0 344.0,110.0 242.0,110.0 242.0,118.0 172.0,118.0 172.0,134.0 140.0,134.0" fill="url(#h)" stroke="#2B303A" stroke-width="2" stroke-linejoin="round"/><rect x="118" y="68" width="96" height="12" fill="#A8B2B7" stroke="#2B303A" stroke-width="1.5"/><polygon points="174.9,118.0 242.0,118.0 242.0,128.6 174.9,138.2" fill="url(#h)" stroke="#2B303A" stroke-width="1.6" stroke-linejoin="round"/>
<polygon points="172.0,160.0 242.0,160.0 242.0,139.8 234.7,139.8 234.7,143.8 182.2,148.6 179.3,148.8 179.3,146.2 172.0,146.2" fill="url(#h)" stroke="#2B303A" stroke-width="1.6" stroke-linejoin="round"/>
<polygon points="182.2,137.4 233.2,130.1 233.2,143.9 182.2,148.6" fill="#A8B2B7" stroke="#2B303A" stroke-width="1.6" stroke-linejoin="round"/>
<line x1="179.3" y1="143.1" x2="237.6" y2="137.0" stroke="#2B303A" stroke-width="0.7" stroke-dasharray="6 2 1 2" opacity=".7"/><g transform="translate(738,0) scale(-1,1)"><polygon points="346.1,140.0 394.0,140.0 394.0,148.6 346.1,156.4" fill="url(#h)" stroke="#2B303A" stroke-width="1.6" stroke-linejoin="round"/>
<polygon points="344.0,174.0 394.0,174.0 394.0,157.6 388.8,157.6 388.8,160.9 351.3,164.7 349.2,165.0 349.2,162.8 344.0,162.8" fill="url(#h)" stroke="#2B303A" stroke-width="1.6" stroke-linejoin="round"/>
<polygon points="351.3,155.7 387.8,149.8 387.8,161.0 351.3,164.7" fill="#A8B2B7" stroke="#2B303A" stroke-width="1.6" stroke-linejoin="round"/>
<line x1="349.2" y1="160.3" x2="390.9" y2="155.4" stroke="#2B303A" stroke-width="0.7" stroke-dasharray="6 2 1 2" opacity=".7"/></g><rect x="148" y="134" width="22" height="14" fill="#5C6B73" stroke="#2B303A" stroke-width="1.5"/><rect x="400" y="152" width="28" height="22" fill="#A8B2B7" stroke="#2B303A" stroke-width="1.5"/></g><line x1="10" y1="210" x2="470" y2="210" stroke="#5C6B73" stroke-width="1" stroke-dasharray="18 4 3 4"/><line x1="207" y1="139" x2="230" y2="34" stroke="#1D5A8E" stroke-width="1.3"/><circle cx="207" cy="139" r="3.5" fill="#1D5A8E"/><text x="236" y="39" font-family="'Inter', 'Segoe UI', Arial, sans-serif" font-size="15" font-weight="600" fill="#2B303A" text-anchor="start" >Rolamento interno</text><line x1="369" y1="157" x2="420" y2="62" stroke="#1D5A8E" stroke-width="1.3"/><circle cx="369" cy="157" r="3.5" fill="#1D5A8E"/><text x="426" y="67" font-family="'Inter', 'Segoe UI', Arial, sans-serif" font-size="15" font-weight="600" fill="#2B303A" text-anchor="start" >Rolamento externo</text><line x1="159" y1="280" x2="120" y2="390" stroke="#1D5A8E" stroke-width="1.3"/><circle cx="159" cy="280" r="3.5" fill="#1D5A8E"/><text x="114" y="395" font-family="'Inter', 'Segoe UI', Arial, sans-serif" font-size="15" font-weight="600" fill="#2B303A" text-anchor="end" >Retentor</text><line x1="414" y1="257" x2="470" y2="360" stroke="#1D5A8E" stroke-width="1.3"/><circle cx="414" cy="257" r="3.5" fill="#1D5A8E"/><text x="476" y="365" font-family="'Inter', 'Segoe UI', Arial, sans-serif" font-size="15" font-weight="600" fill="#2B303A" text-anchor="start" >Porca de ajuste</text><line x1="80" y1="240" x2="40" y2="330" stroke="#1D5A8E" stroke-width="1.3"/><circle cx="80" cy="240" r="3.5" fill="#1D5A8E"/><text x="46" y="335" font-family="'Inter', 'Segoe UI', Arial, sans-serif" font-size="15" font-weight="600" fill="#2B303A" text-anchor="start" >Ponta de eixo</text><line x1="260" y1="317" x2="290" y2="390" stroke="#1D5A8E" stroke-width="1.3"/><circle cx="260" cy="317" r="3.5" fill="#1D5A8E"/><text x="296" y="395" font-family="'Inter', 'Segoe UI', Arial, sans-serif" font-size="15" font-weight="600" fill="#2B303A" text-anchor="start" >Cubo</text></svg>