<svg xmlns="http://www.w3.org/2000/svg" viewBox="0 0 1200 450" role="img" aria-labelledby="t d">
<title id="t">Frota de caminhões com carreta</title>
<desc id="d">Ilustração lateral de cavalos mecânicos com semirreboque, com destaque para o cubo da roda dianteira, onde ficam os rolamentos cônicos.</desc>
<rect width="1200" height="450" fill="#F4F6F8"/>
<rect y="378" width="1200" height="72" fill="#E4E8EB"/>
<line x1="0" y1="378" x2="1200" y2="378" stroke="#A8B2B7" stroke-width="2"/>
<rect x="20" y="400" width="70" height="6" fill="#FFFFFF"/><rect x="860" y="400" width="70" height="6" fill="#FFFFFF"/><rect x="1000" y="400" width="70" height="6" fill="#FFFFFF"/><rect x="1140" y="400" width="70" height="6" fill="#FFFFFF"/>
<g transform="translate(250,24) scale(0.78)" opacity="0.3"><rect x="330" y="70" width="800" height="222" rx="4" fill="#FFFFFF" stroke="#2B303A" stroke-width="3"/><line x1="380" y1="74" x2="380" y2="288" stroke="#E4E8EB" stroke-width="2"/><line x1="430" y1="74" x2="430" y2="288" stroke="#E4E8EB" stroke-width="2"/><line x1="480" y1="74" x2="480" y2="288" stroke="#E4E8EB" stroke-width="2"/><line x1="530" y1="74" x2="530" y2="288" stroke="#E4E8EB" stroke-width="2"/><line x1="580" y1="74" x2="580" y2="288" stroke="#E4E8EB" stroke-width="2"/><line x1="630" y1="74" x2="630" y2="288" stroke="#E4E8EB" stroke-width="2"/><line x1="680" y1="74" x2="680" y2="288" stroke="#E4E8EB" stroke-width="2"/><line x1="730" y1="74" x2="730" y2="288" stroke="#E4E8EB" stroke-width="2"/><line x1="780" y1="74" x2="780" y2="288" stroke="#E4E8EB" stroke-width="2"/><line x1="830" y1="74" x2="830" y2="288" stroke="#E4E8EB" stroke-width="2"/><line x1="880" y1="74" x2="880" y2="288" stroke="#E4E8EB" stroke-width="2"/><line x1="930" y1="74" x2="930" y2="288" stroke="#E4E8EB" stroke-width="2"/><line x1="980" y1="74" x2="980" y2="288" stroke="#E4E8EB" stroke-width="2"/><line x1="1030" y1="74" x2="1030" y2="288" stroke="#E4E8EB" stroke-width="2"/><line x1="1080" y1="74" x2="1080" y2="288" stroke="#E4E8EB" stroke-width="2"/><rect x="330" y="292" width="800" height="16" fill="#2B303A"/><rect x="560" y="308" width="8" height="46" fill="#5C6B73"/><rect x="548" y="350" width="32" height="6" fill="#5C6B73"/><rect x="860" y="308" width="250" height="14" fill="#5C6B73"/><rect x="92" y="298" width="440" height="20" fill="#2B303A"/><path d="M84 300 L84 118 Q84 92 110 90 L262 88 Q280 88 282 106 L286 300 Z" fill="#F4F6F8" stroke="#2B303A" stroke-width="3"/><path d="M96 110 L96 188 L150 188 L150 104 Q100 104 96 110 Z" fill="#A8B2B7" stroke="#2B303A" stroke-width="2"/><rect x="166" y="112" width="96" height="76" rx="4" fill="#E4E8EB" stroke="#2B303A" stroke-width="2"/><rect x="84" y="228" width="16" height="44" fill="#5C6B73"/><rect x="286" y="160" width="40" height="140" fill="#E4E8EB" stroke="#2B303A" stroke-width="2"/><rect x="90" y="286" width="190" height="10" fill="#5C6B73"/><rect x="186" y="308" width="90" height="34" rx="12" fill="#A8B2B7" stroke="#2B303A" stroke-width="2"/><circle cx="150" cy="334" r="40" fill="#2B303A"/><circle cx="150" cy="334" r="24.0" fill="#A8B2B7"/><circle cx="150" cy="334" r="11.2" fill="#5C6B73"/><circle cx="167.6" cy="334.0" r="2.6" fill="#2B303A"/><circle cx="162.4" cy="346.4" r="2.6" fill="#2B303A"/><circle cx="150.0" cy="351.6" r="2.6" fill="#2B303A"/><circle cx="137.6" cy="346.4" r="2.6" fill="#2B303A"/><circle cx="132.4" cy="334.0" r="2.6" fill="#2B303A"/><circle cx="137.6" cy="321.6" r="2.6" fill="#2B303A"/><circle cx="150.0" cy="316.4" r="2.6" fill="#2B303A"/><circle cx="162.4" cy="321.6" r="2.6" fill="#2B303A"/><circle cx="400" cy="334" r="40" fill="#2B303A"/><circle cx="400" cy="334" r="24.0" fill="#A8B2B7"/><circle cx="400" cy="334" r="11.2" fill="#5C6B73"/><circle cx="417.6" cy="334.0" r="2.6" fill="#2B303A"/><circle cx="412.4" cy="346.4" r="2.6" fill="#2B303A"/><circle cx="400.0" cy="351.6" r="2.6" fill="#2B303A"/><circle cx="387.6" cy="346.4" r="2.6" fill="#2B303A"/><circle cx="382.4" cy="334.0" r="2.6" fill="#2B303A"/><circle cx="387.6" cy="321.6" r="2.6" fill="#2B303A"/><circle cx="400.0" cy="316.4" r="2.6" fill="#2B303A"/><circle cx="412.4" cy="321.6" r="2.6" fill="#2B303A"/><circle cx="488" cy="334" r="40" fill="#2B303A"/><circle cx="488" cy="334" r="24.0" fill="#A8B2B7"/><circle cx="488" cy="334" r="11.2" fill="#5C6B73"/><circle cx="505.6" cy="334.0" r="2.6" fill="#2B303A"/><circle cx="500.4" cy="346.4" r="2.6" fill="#2B303A"/><circle cx="488.0" cy="351.6" r="2.6" fill="#2B303A"/><circle cx="475.6" cy="346.4" r="2.6" fill="#2B303A"/><circle cx="470.4" cy="334.0" r="2.6" fill="#2B303A"/><circle cx="475.6" cy="321.6" r="2.6" fill="#2B303A"/><circle cx="488.0" cy="316.4" r="2.6" fill="#2B303A"/><circle cx="500.4" cy="321.6" r="2.6" fill="#2B303A"/><circle cx="900" cy="334" r="40" fill="#2B303A"/><circle cx="900" cy="334" r="24.0" fill="#A8B2B7"/><circle cx="900" cy="334" r="11.2" fill="#5C6B73"/><circle cx="917.6" cy="334.0" r="2.6" fill="#2B303A"/><circle cx="912.4" cy="346.4" r="2.6" fill="#2B303A"/><circle cx="900.0" cy="351.6" r="2.6" fill="#2B303A"/><circle cx="887.6" cy="346.4" r="2.6" fill="#2B303A"/><circle cx="882.4" cy="334.0" r="2.6" fill="#2B303A"/><circle cx="887.6" cy="321.6" r="2.6" fill="#2B303A"/><circle cx="900.0" cy="316.4" r="2.6" fill="#2B303A"/><circle cx="912.4" cy="321.6" r="2.6" fill="#2B303A"/><circle cx="990" cy="334" r="40" fill="#2B303A"/><circle cx="990" cy="334" r="24.0" fill="#A8B2B7"/><circle cx="990" cy="334" r="11.2" fill="#5C6B73"/><circle cx="1007.6" cy="334.0" r="2.6" fill="#2B303A"/><circle cx="1002.4" cy="346.4" r="2.6" fill="#2B303A"/><circle cx="990.0" cy="351.6" r="2.6" fill="#2B303A"/><circle cx="977.6" cy="346.4" r="2.6" fill="#2B303A"/><circle cx="972.4" cy="334.0" r="2.6" fill="#2B303A"/><circle cx="977.6" cy="321.6" r="2.6" fill="#2B303A"/><circle cx="990.0" cy="316.4" r="2.6" fill="#2B303A"/><circle cx="1002.4" cy="321.6" r="2.6" fill="#2B303A"/><circle cx="1080" cy="334" r="40" fill="#2B303A"/><circle cx="1080" cy="334" r="24.0" fill="#A8B2B7"/><circle cx="1080" cy="334" r="11.2" fill="#5C6B73"/><circle cx="1097.6" cy="334.0" r="2.6" fill="#2B303A"/><circle cx="1092.4" cy="346.4" r="2.6" fill="#2B303A"/><circle cx="1080.0" cy="351.6" r="2.6" fill="#2B303A"/><circle cx="1067.6" cy="346.4" r="2.6" fill="#2B303A"/><circle cx="1062.4" cy="334.0" r="2.6" fill="#2B303A"/><circle cx="1067.6" cy="321.6" r="2.6" fill="#2B303A"/><circle cx="1080.0" cy="316.4" r="2.6" fill="#2B303A"/><circle cx="1092.4" cy="321.6" r="2.6" fill="#2B303A"/><path d="M100 322 Q150 272 200 322" fill="none" stroke="#2B303A" stroke-width="4"/><path d="M350 322 Q400 272 450 322" fill="none" stroke="#2B303A" stroke-width="4"/><path d="M438 322 Q488 272 538 322" fill="none" stroke="#2B303A" stroke-width="4"/><path d="M850 322 Q900 272 950 322" fill="none" stroke="#2B303A" stroke-width="4"/><path d="M940 322 Q990 272 1040 322" fill="none" stroke="#2B303A" stroke-width="4"/><path d="M1030 322 Q1080 272 1130 322" fill="none" stroke="#2B303A" stroke-width="4"/></g>
<g transform="translate(20,88) scale(0.78)" opacity="1"><rect x="330" y="70" width="800" height="222" rx="4" fill="#FFFFFF" stroke="#2B303A" stroke-width="3"/><line x1="380" y1="74" x2="380" y2="288" stroke="#E4E8EB" stroke-width="2"/><line x1="430" y1="74" x2="430" y2="288" stroke="#E4E8EB" stroke-width="2"/><line x1="480" y1="74" x2="480" y2="288" stroke="#E4E8EB" stroke-width="2"/><line x1="530" y1="74" x2="530" y2="288" stroke="#E4E8EB" stroke-width="2"/><line x1="580" y1="74" x2="580" y2="288" stroke="#E4E8EB" stroke-width="2"/><line x1="630" y1="74" x2="630" y2="288" stroke="#E4E8EB" stroke-width="2"/><line x1="680" y1="74" x2="680" y2="288" stroke="#E4E8EB" stroke-width="2"/><line x1="730" y1="74" x2="730" y2="288" stroke="#E4E8EB" stroke-width="2"/><line x1="780" y1="74" x2="780" y2="288" stroke="#E4E8EB" stroke-width="2"/><line x1="830" y1="74" x2="830" y2="288" stroke="#E4E8EB" stroke-width="2"/><line x1="880" y1="74" x2="880" y2="288" stroke="#E4E8EB" stroke-width="2"/><line x1="930" y1="74" x2="930" y2="288" stroke="#E4E8EB" stroke-width="2"/><line x1="980" y1="74" x2="980" y2="288" stroke="#E4E8EB" stroke-width="2"/><line x1="1030" y1="74" x2="1030" y2="288" stroke="#E4E8EB" stroke-width="2"/><line x1="1080" y1="74" x2="1080" y2="288" stroke="#E4E8EB" stroke-width="2"/><rect x="330" y="292" width="800" height="16" fill="#2B303A"/><rect x="560" y="308" width="8" height="46" fill="#5C6B73"/><rect x="548" y="350" width="32" height="6" fill="#5C6B73"/><rect x="860" y="308" width="250" height="14" fill="#5C6B73"/><rect x="92" y="298" width="440" height="20" fill="#2B303A"/><path d="M84 300 L84 118 Q84 92 110 90 L262 88 Q280 88 282 106 L286 300 Z" fill="#F4F6F8" stroke="#2B303A" stroke-width="3"/><path d="M96 110 L96 188 L150 188 L150 104 Q100 104 96 110 Z" fill="#A8B2B7" stroke="#2B303A" stroke-width="2"/><rect x="166" y="112" width="96" height="76" rx="4" fill="#E4E8EB" stroke="#2B303A" stroke-width="2"/><rect x="84" y="228" width="16" height="44" fill="#5C6B73"/><rect x="286" y="160" width="40" height="140" fill="#E4E8EB" stroke="#2B303A" stroke-width="2"/><rect x="90" y="286" width="190" height="10" fill="#5C6B73"/><rect x="186" y="308" width="90" height="34" rx="12" fill="#A8B2B7" stroke="#2B303A" stroke-width="2"/><circle cx="150" cy="334" r="40" fill="#2B303A"/><circle cx="150" cy="334" r="24.0" fill="#A8B2B7"/><circle cx="150" cy="334" r="11.2" fill="#5C6B73"/><circle cx="167.6" cy="334.0" r="2.6" fill="#2B303A"/><circle cx="162.4" cy="346.4" r="2.6" fill="#2B303A"/><circle cx="150.0" cy="351.6" r="2.6" fill="#2B303A"/><circle cx="137.6" cy="346.4" r="2.6" fill="#2B303A"/><circle cx="132.4" cy="334.0" r="2.6" fill="#2B303A"/><circle cx="137.6" cy="321.6" r="2.6" fill="#2B303A"/><circle cx="150.0" cy="316.4" r="2.6" fill="#2B303A"/><circle cx="162.4" cy="321.6" r="2.6" fill="#2B303A"/><circle cx="400" cy="334" r="40" fill="#2B303A"/><circle cx="400" cy="334" r="24.0" fill="#A8B2B7"/><circle cx="400" cy="334" r="11.2" fill="#5C6B73"/><circle cx="417.6" cy="334.0" r="2.6" fill="#2B303A"/><circle cx="412.4" cy="346.4" r="2.6" fill="#2B303A"/><circle cx="400.0" cy="351.6" r="2.6" fill="#2B303A"/><circle cx="387.6" cy="346.4" r="2.6" fill="#2B303A"/><circle cx="382.4" cy="334.0" r="2.6" fill="#2B303A"/><circle cx="387.6" cy="321.6" r="2.6" fill="#2B303A"/><circle cx="400.0" cy="316.4" r="2.6" fill="#2B303A"/><circle cx="412.4" cy="321.6" r="2.6" fill="#2B303A"/><circle cx="488" cy="334" r="40" fill="#2B303A"/><circle cx="488" cy="334" r="24.0" fill="#A8B2B7"/><circle cx="488" cy="334" r="11.2" fill="#5C6B73"/><circle cx="505.6" cy="334.0" r="2.6" fill="#2B303A"/><circle cx="500.4" cy="346.4" r="2.6" fill="#2B303A"/><circle cx="488.0" cy="351.6" r="2.6" fill="#2B303A"/><circle cx="475.6" cy="346.4" r="2.6" fill="#2B303A"/><circle cx="470.4" cy="334.0" r="2.6" fill="#2B303A"/><circle cx="475.6" cy="321.6" r="2.6" fill="#2B303A"/><circle cx="488.0" cy="316.4" r="2.6" fill="#2B303A"/><circle cx="500.4" cy="321.6" r="2.6" fill="#2B303A"/><circle cx="900" cy="334" r="40" fill="#2B303A"/><circle cx="900" cy="334" r="24.0" fill="#A8B2B7"/><circle cx="900" cy="334" r="11.2" fill="#5C6B73"/><circle cx="917.6" cy="334.0" r="2.6" fill="#2B303A"/><circle cx="912.4" cy="346.4" r="2.6" fill="#2B303A"/><circle cx="900.0" cy="351.6" r="2.6" fill="#2B303A"/><circle cx="887.6" cy="346.4" r="2.6" fill="#2B303A"/><circle cx="882.4" cy="334.0" r="2.6" fill="#2B303A"/><circle cx="887.6" cy="321.6" r="2.6" fill="#2B303A"/><circle cx="900.0" cy="316.4" r="2.6" fill="#2B303A"/><circle cx="912.4" cy="321.6" r="2.6" fill="#2B303A"/><circle cx="990" cy="334" r="40" fill="#2B303A"/><circle cx="990" cy="334" r="24.0" fill="#A8B2B7"/><circle cx="990" cy="334" r="11.2" fill="#5C6B73"/><circle cx="1007.6" cy="334.0" r="2.6" fill="#2B303A"/><circle cx="1002.4" cy="346.4" r="2.6" fill="#2B303A"/><circle cx="990.0" cy="351.6" r="2.6" fill="#2B303A"/><circle cx="977.6" cy="346.4" r="2.6" fill="#2B303A"/><circle cx="972.4" cy="334.0" r="2.6" fill="#2B303A"/><circle cx="977.6" cy="321.6" r="2.6" fill="#2B303A"/><circle cx="990.0" cy="316.4" r="2.6" fill="#2B303A"/><circle cx="1002.4" cy="321.6" r="2.6" fill="#2B303A"/><circle cx="1080" cy="334" r="40" fill="#2B303A"/><circle cx="1080" cy="334" r="24.0" fill="#A8B2B7"/><circle cx="1080" cy="334" r="11.2" fill="#5C6B73"/><circle cx="1097.6" cy="334.0" r="2.6" fill="#2B303A"/><circle cx="1092.4" cy="346.4" r="2.6" fill="#2B303A"/><circle cx="1080.0" cy="351.6" r="2.6" fill="#2B303A"/><circle cx="1067.6" cy="346.4" r="2.6" fill="#2B303A"/><circle cx="1062.4" cy="334.0" r="2.6" fill="#2B303A"/><circle cx="1067.6" cy="321.6" r="2.6" fill="#2B303A"/><circle cx="1080.0" cy="316.4" r="2.6" fill="#2B303A"/><circle cx="1092.4" cy="321.6" r="2.6" fill="#2B303A"/><path d="M100 322 Q150 272 200 322" fill="none" stroke="#2B303A" stroke-width="4"/><path d="M350 322 Q400 272 450 322" fill="none" stroke="#2B303A" stroke-width="4"/><path d="M438 322 Q488 272 538 322" fill="none" stroke="#2B303A" stroke-width="4"/><path d="M850 322 Q900 272 950 322" fill="none" stroke="#2B303A" stroke-width="4"/><path d="M940 322 Q990 272 1040 322" fill="none" stroke="#2B303A" stroke-width="4"/><path d="M1030 322 Q1080 272 1130 322" fill="none" stroke="#2B303A" stroke-width="4"/><circle cx="150" cy="334" r="60" fill="none" stroke="#1D5A8E" stroke-width="3" stroke-dasharray="7 6"/></g>
<line x1="178" y1="380" x2="206" y2="420" stroke="#1D5A8E" stroke-width="1.5"/>
<text x="212" y="432" font-family="'Inter', 'Segoe UI', Arial, sans-serif" font-size="24" font-weight="700" fill="#1D5A8E" text-anchor="start" >Cubo de roda: onde trabalham os rolamentos cônicos</text>
</svg>